<svg width="16" height="16" viewBox="0 0 16 16" fill="none" xmlns="http://www.w3.org/2000/svg">
<rect width="16" height="16" rx="3" fill="black"/>
<path d="M5.72503 4.87717C6.15494 4.84541 6.53034 5.16554 6.56685 5.59509C6.60335 6.02462 6.28737 6.40353 5.85827 6.44476C5.57645 6.47184 5.3018 6.34541 5.13914 6.11368C4.97648 5.88197 4.95088 5.58072 5.07211 5.32487C5.19333 5.06901 5.44269 4.89805 5.72503 4.87717Z" fill="#FEFEFE"/>
<path d="M5.62098 9.48391C6.04765 9.39386 6.46614 9.66818 6.55374 10.0954C6.64134 10.5226 6.36462 10.9395 5.93693 11.0246C5.5127 11.1091 5.0999 10.8351 5.01301 10.4113C4.92612 9.9876 5.19774 9.57324 5.62098 9.48391Z" fill="#FEFEFE"/>
<path d="M8.04669 2.78465C8.53591 2.75049 8.87911 2.97428 9.03742 3.44121C8.9493 3.92661 8.67368 4.06986 8.21453 4.13712C6.9326 4.15263 6.87546 2.91779 8.04669 2.78465Z" fill="#FEFEFE"/>
<path d="M7.96046 11.7904C9.22345 11.6609 9.36266 12.948 8.28672 13.1253C7.86557 13.1481 7.32235 13.0179 7.22216 12.539C7.19346 12.3953 7.22421 12.2461 7.30738 12.1255C7.45406 11.91 7.71899 11.8385 7.96046 11.7904Z" fill="#FEFEFE"/>
<path d="M12.6638 7.09143C13.5832 7.0189 13.8323 8.50804 12.8872 8.81045C12.1589 8.93115 11.9164 7.98039 12.1973 7.46861C12.3239 7.23799 12.4263 7.16904 12.6638 7.09143Z" fill="#FEFEFE"/>
<path d="M3.33551 7.09153C4.28631 7.03486 4.5323 8.42573 3.61019 8.80757C2.75163 8.98231 2.40679 7.48074 3.33551 7.09153Z" fill="#FEFEFE"/>
<path d="M10.4054 4.88985C10.8292 4.85843 11.1991 5.17443 11.2343 5.59792C11.2695 6.02141 10.9568 6.39414 10.5336 6.43313C10.1051 6.47262 9.72659 6.15509 9.69094 5.72619C9.65528 5.29732 9.97619 4.92165 10.4054 4.88985Z" fill="#FEFEFE"/>
<path d="M10.3395 9.4903C10.7583 9.42329 11.1531 9.70593 11.2246 10.124C11.2961 10.5422 11.0178 10.94 10.6004 11.016C10.3265 11.0659 10.0468 10.9648 9.86807 10.7512C9.68938 10.5376 9.63924 10.2444 9.73676 9.98353C9.83429 9.72266 10.0645 9.53431 10.3395 9.4903Z" fill="#FEFEFE"/>
<path d="M5.44246 11.5605C6.2516 11.5032 6.92337 12.7277 5.9501 12.9521C5.50512 12.9711 5.03064 12.6258 4.96779 12.1729C4.95792 12.1018 4.96413 12.0004 4.96674 11.9271C5.09331 11.7033 5.18637 11.6045 5.44246 11.5605Z" fill="#FEFEFE"/>
<path d="M5.72045 2.97187C5.88791 2.95979 5.99483 2.95072 6.15247 3.02805C6.26888 3.08469 6.35714 3.18634 6.39687 3.30954C6.55538 3.78621 6.09244 4.20638 5.67608 4.33761C5.51991 4.35793 5.38347 4.35622 5.23727 4.29047C5.12581 4.24131 5.03932 4.14864 4.99795 4.03404C4.80987 3.52325 5.28721 3.12276 5.72045 2.97187Z" fill="#FEFEFE"/>
<path d="M3.41206 9.60483C4.20694 9.58276 4.85129 10.6635 3.99068 10.987C2.99698 11.1 2.58141 9.74081 3.41206 9.60483Z" fill="#FEFEFE"/>
<path d="M3.71696 4.9267C4.60442 4.80635 4.64406 5.96407 3.67178 6.28165C3.50294 6.32846 3.35634 6.30448 3.19663 6.25008C2.68118 5.74969 3.1119 5.08638 3.71696 4.9267Z" fill="#FEFEFE"/>
<path d="M12.2748 4.9245C13.0693 4.84982 13.7733 5.95757 12.9029 6.29388C12.0998 6.40345 11.3881 5.31456 12.2748 4.9245Z" fill="#FEFEFE"/>
<path d="M12.7001 9.60566C13.5347 9.54622 13.5133 10.7377 12.4809 10.9955C11.546 11.0558 11.7574 9.73952 12.7001 9.60566Z" fill="#FEFEFE"/>
<path d="M10.2356 2.97206C11.0723 2.90081 11.7228 3.99913 10.8687 4.34236C10.7292 4.35375 10.6429 4.36533 10.5066 4.31568C9.92743 4.10475 9.46631 3.29866 10.2356 2.97206Z" fill="#FEFEFE"/>
<path d="M10.6267 11.5621C11.5672 11.5335 11.4345 12.65 10.4901 12.9416C9.52899 13.077 9.71328 11.7261 10.6267 11.5621Z" fill="#FEFEFE"/>
<path d="M4.14813 3.45312C4.85359 3.53785 4.15608 4.44094 3.59492 4.5595C3.23187 4.54947 3.25039 4.25422 3.39865 4.00641C3.56605 3.73065 3.83529 3.53187 4.14813 3.45312Z" fill="#FEFEFE"/>
<path d="M3.46854 11.3637C3.85571 11.3523 4.13704 11.6023 4.34422 11.9049C4.47253 12.0922 4.48031 12.3231 4.26634 12.4477C3.78846 12.4971 2.97342 11.7341 3.46854 11.3637Z" fill="#FEFEFE"/>
<path d="M11.998 3.46539C12.4778 3.42262 13.2978 4.29416 12.7366 4.54671C12.2927 4.6058 11.5082 3.80504 11.998 3.46539Z" fill="#FEFEFE"/>
<path d="M12.5714 11.3652C12.8339 11.3523 13.0172 11.4705 12.8999 11.7541C12.7612 12.0891 12.5006 12.3021 12.1784 12.4493C12.1033 12.4602 12.0267 12.4506 11.9565 12.4217C11.7681 12.3454 11.8315 12.0703 11.9116 11.9371C12.0661 11.6802 12.2786 11.4563 12.5714 11.3652Z" fill="#FEFEFE"/>
<path d="M1.80416 7.37402C2.27573 7.43007 2.30153 8.30303 1.86694 8.55124C1.46239 8.50593 1.3777 7.64466 1.80416 7.37402Z" fill="#FEFEFE"/>
<path d="M14.3377 7.37402C14.8015 7.41315 14.8188 8.26628 14.438 8.53984C14.0032 8.57559 13.936 7.60165 14.3377 7.37402Z" fill="#FEFEFE"/>
<path d="M8.04529 1.59328C8.23875 1.57511 8.38367 1.61457 8.55785 1.68429C8.85257 2.02137 8.54974 2.15413 8.2312 2.20596C7.49971 2.21635 7.23591 1.72767 8.04529 1.59328Z" fill="#FEFEFE"/>
<path d="M8.04305 13.7073C8.23744 13.6897 8.38 13.7297 8.55671 13.796C8.634 13.8867 8.65342 13.9212 8.70881 14.0226C8.70297 14.0327 8.69683 14.0426 8.69037 14.0524C8.55694 14.2546 8.48466 14.2697 8.25908 14.3178C7.56507 14.366 7.19185 13.8511 8.04305 13.7073Z" fill="#FEFEFE"/>
<path d="M5.86486 13.5547C6.05712 13.5417 6.57202 13.6583 6.48544 13.9159C6.44148 13.9711 6.39567 13.974 6.32613 13.9901C6.111 13.9999 6.00831 13.9898 5.80689 13.9195C5.65069 13.7594 5.62136 13.6445 5.86486 13.5547Z" fill="#FEFEFE"/>
<path d="M2.14192 5.58691C2.47216 5.63635 2.33271 6.22247 2.02289 6.39021C1.65725 6.2379 1.89116 5.75441 2.14192 5.58691Z" fill="#FEFEFE"/>
<path d="M1.99899 9.51367C2.28748 9.65395 2.48892 10.1121 2.17669 10.3164C1.8508 10.2189 1.70554 9.75477 1.99899 9.51367Z" fill="#FEFEFE"/>
<path d="M6.18888 1.92062C6.29578 1.91021 6.4327 1.92706 6.48189 2.03216C6.47836 2.24185 6.16214 2.34296 5.99522 2.3665C5.88692 2.36158 5.73826 2.34145 5.67798 2.23961C5.67823 2.00893 6.00971 1.94523 6.18888 1.92062Z" fill="#FEFEFE"/>
<path d="M10.2391 13.5534C10.6058 13.5398 10.582 13.7273 10.3872 13.9547C10.2567 13.9844 10.1922 13.9892 10.0589 13.9984C9.97162 14.002 9.82126 13.9887 9.77348 13.9083C9.7627 13.6869 10.0632 13.589 10.2391 13.5534Z" fill="#FEFEFE"/>
<path d="M9.99705 1.91936C10.1898 1.91336 10.4548 1.97066 10.543 2.16415C10.5453 2.29863 10.4485 2.33548 10.3327 2.37002C10.1392 2.34571 9.86792 2.28107 9.77466 2.08803C9.7741 1.95429 9.88532 1.94304 9.99705 1.91936Z" fill="#FEFEFE"/>
<path d="M14.1851 9.5127C14.5516 9.56794 14.3479 10.1232 14.1298 10.3076C13.731 10.2851 14.0294 9.68094 14.1851 9.5127Z" fill="#FEFEFE"/>
<path d="M14.073 5.58301C14.3379 5.68428 14.5214 6.17902 14.2394 6.39418C14.054 6.34942 13.9403 6.06663 13.9427 5.89338C13.9447 5.74214 13.9726 5.68987 14.073 5.58301Z" fill="#FEFEFE"/>
</svg>
